HIERARCHY
ROOT root     
{
	OFFSET 0.0000 0.0000 0.0000
	CHANNELS 6 Xposition Yposition Zposition Zrotation Yrotation Xrotation
	JOINT pelvis   
	{
		OFFSET 0.0000 0.0000 0.0000
		CHANNELS 3 Zrotation Yrotation Xrotation
		JOINT thorax   
		{
			OFFSET 0.0000 23.0750 -5.0000
			CHANNELS 3 Zrotation Yrotation Xrotation
			JOINT rclavicle
			{
				OFFSET 0.0000 28.0009 0.0000
				CHANNELS 3 Zrotation Yrotation Xrotation
				JOINT rhumerus 
				{
					OFFSET -18.5725 5.5939 0.0000
					CHANNELS 3 Zrotation Yrotation Xrotation
					JOINT rradius  
					{
						OFFSET -24.8459 0.0000 0.0000
						CHANNELS 3 Zrotation Yrotation Xrotation
						JOINT rhand    
						{
							OFFSET -24.5477 0.0000 0.0000
							CHANNELS 3 Zrotation Yrotation Xrotation
							End Site
							{
								OFFSET -8.1826 0.0000 0.0000
							}
						}
					}
				}
			}
			JOINT lclavicle
			{
				OFFSET 0.0000 28.0009 0.0000
				CHANNELS 3 Zrotation Yrotation Xrotation
				JOINT lhumerus 
				{
					OFFSET 18.5725 5.5939 0.0000
					CHANNELS 3 Zrotation Yrotation Xrotation
					JOINT lradius  
					{
						OFFSET 24.8459 0.0000 0.0000
						CHANNELS 3 Zrotation Yrotation Xrotation
						JOINT lhand    
						{
							OFFSET 24.5477 0.0000 0.0000
							CHANNELS 3 Zrotation Yrotation Xrotation
							End Site
							{
								OFFSET 8.1826 0.0000 0.0000
							}
						}
					}
				}
			}
			JOINT head     
			{
				OFFSET 0.0000 35.2030 0.0000
				CHANNELS 3 Zrotation Yrotation Xrotation
				End Site
				{
					OFFSET 0.0000 11.7343 0.0000
				}
			}
		}
		JOINT rfemur   
		{
			OFFSET -8.2817 0.0000 0.0000
			CHANNELS 3 Zrotation Yrotation Xrotation
			JOINT rtibia   
			{
				OFFSET 0.0000 -43.3627 0.0000
				CHANNELS 3 Zrotation Yrotation Xrotation
				JOINT rfoot    
				{
					OFFSET 0.0000 -38.2947 0.0000
					CHANNELS 3 Zrotation Yrotation Xrotation
					JOINT rtoes    
					{
						OFFSET 0.0000 0.0000 16.6054
						CHANNELS 3 Zrotation Yrotation Xrotation
						End Site
						{
							OFFSET 0.0000 0.0000 5.5351
						}
					}
				}
			}
		}
		JOINT lfemur   
		{
			OFFSET 8.2817 0.0000 0.0000
			CHANNELS 3 Zrotation Yrotation Xrotation
			JOINT ltibia   
			{
				OFFSET 0.0000 -43.3627 0.0000
				CHANNELS 3 Zrotation Yrotation Xrotation
				JOINT lfoot    
				{
					OFFSET 0.0000 -38.2947 0.0000
					CHANNELS 3 Zrotation Yrotation Xrotation
					JOINT ltoes    
					{
						OFFSET 0.0000 0.0000 16.6054
						CHANNELS 3 Zrotation Yrotation Xrotation
						End Site
						{
							OFFSET 0.0000 0.0000 5.5351
						}
					}
				}
			}
		}
	}
}
MOTION
Frames: 7
Frame Time: .0333333
69.575 86.97 11.576 19.879 -87.2476 -1.17398 0 -0 0 4.76739 -10.8116 -9.81134 29.2517 -6.58093 -3.88066e-05 46.4498 11.509 -4.38518 -0 34.8035 -0 -7.0704 4.31049 -0.266405 -26.2531 9.37417 7.77612e-05 -42.1914 1.60012 19.0912 0 -40.615 0 3.47299 -0.683193 -0.0206998 -7.09689 1.81455 -2.97679 0.153311 -2.71511 -17.3584 -0 -0 28.8982 1.87242e-06 -5.59848 4.54971 -0.445494 -3.2693e-06 -58.1688 0.871303 8.03802 -23.9067 -0 -0 55.9845 2.00826e-05 19.1256 3.94367 1.36619 -2.42224e-06 -30.8727 
68.514 87.3 11.611 25.0631 -87.386 -6.31668 0 -0 0 4.24837 -10.3398 -9.50909 29.1054 -6.4827 -4.55281e-05 46.5199 11.8958 -0.673443 -0 35.8799 -0 -5.95771 5.07705 -0.264399 -26.2675 9.3919 -5.03256e-05 -42.2444 2.01131 18.5058 0 -39.1208 0 3.49391 -0.613 -0.0187001 -7.67836 1.49852 -3.46757 -0.151111 -2.88304 -16.411 -0 -0 27.9587 4.68242e-06 -4.99832 6.0933 -0.531894 3.20937e-06 -60.1231 0.0924726 8.42927 -25.1609 -0 -0 55.1761 -6.74175e-06 18.8594 3.00901 1.02729 -2.00764e-07 -30.6482 
67.443 87.618 11.651 31.1382 -87.5583 -12.3461 0 -0 0 3.71876 -9.84592 -9.22966 28.9451 -6.46116 1.34928e-05 46.5115 12.3772 3.13403 -0 37.1094 -0 -4.9211 5.81723 -0.250203 -26.2716 9.44685 4.5107e-06 -42.2919 2.45606 17.7967 2.47616e-07 -37.8138 -7.22947e-07 3.58444 -0.5243 -0.0164001 -8.23871 1.18365 -3.94068 -0.466704 -2.99083 -15.4734 -0 -0 27.0127 -4.0481e-06 -4.45041 7.68664 -0.596408 1.8502e-06 -61.9187 -0.703344 8.80097 -26.3602 -0 -0 54.1459 -7.53545e-06 18.6191 2.13035 0.71749 -9.17397e-06 -30.4657 
66.362 87.919 11.698 38.5556 -87.7059 -19.6991 0 -0 0 3.17212 -9.33252 -8.98244 28.7515 -6.41235 -7.12641e-06 46.4725 12.7981 6.77801 -0 38.5787 -0 -3.87594 6.47472 -0.219305 -26.2699 9.5343 5.06266e-05 -42.3208 2.93692 16.9906 2.37044e-07 -36.6985 -7.14687e-07 3.72501 -0.420499 -0.0137001 -8.77238 0.872292 -4.38951 -0.800953 -3.04871 -14.5524 -0 -0 26.0773 8.15982e-06 -3.95357 9.29632 -0.639699 -1.55833e-06 -63.5326 -1.51367 9.13374 -27.4956 -0 -0 52.8955 -9.74258e-06 18.4057 1.32516 0.440898 4.65448e-06 -30.3031 
65.272 88.202 11.749 47.2413 -87.833 -28.3 0 -0 0 2.62163 -8.80027 -8.77772 28.5322 -6.39725 9.5039e-06 46.395 13.2527 10.2945 -2.71787e-07 40.2147 -7.42399e-07 -2.85897 7.04043 -0.175904 -26.2663 9.65845 -4.38821e-05 -42.3237 3.44315 16.1094 2.28589e-07 -35.7787 -7.08175e-07 3.88706 -0.309001 -0.0105002 -9.27761 0.563507 -4.81957 -1.14164 -3.05195 -13.6634 -0 -0 25.161 3.66058e-06 -3.5202 10.8969 -0.666292 -1.16425e-06 -64.9739 -2.3186 9.41494 -28.5804 -0 -0 51.4386 2.06473e-06 18.2086 0.610592 0.200797 -2.69061e-08 -30.1483 
64.175 88.463 11.804 57.1357 -87.9295 -38.0866 0 -0 0 2.0679 -8.25528 -8.6193 28.2826 -6.40177 3.70972e-05 46.3044 13.7219 13.5979 -0 42.004 -0 -1.85371 7.50016 -0.121501 -26.2636 9.81877 -1.64067e-05 -42.2951 3.96601 15.1813 0 -35.0486 0 4.04086 -0.196003 -0.00689998 -9.7536 0.258194 -5.23537 -1.48719 -3.01163 -12.8161 -0 -0 24.2708 -3.20743e-06 -3.14618 12.4601 -0.679494 4.4041e-06 -66.2744 -3.10785 9.62939 -29.615 -0 -0 49.787 6.04587e-09 18.0204 -0.000800004 -0.000299995 1.35523e-09 -29.9951 
63.075 88.7 11.861 67.594 -87.9539 -48.4005 0 -0 0 1.51849 -7.70407 -8.51309 28.0036 -6.42849 -2.03097e-05 46.2162 14.2065 16.6481 -0 43.9151 -0 -0.869515 7.853 -0.0597016 -26.2666 10.008 -7.90457e-06 -42.2296 4.50441 14.2208 0 -34.5047 0 4.15694 -0.0857993 -0.00310001 -10.2029 -0.0438995 -5.6427 -1.82928 -2.93499 -12.0198 -0 -0 23.4142 7.98946e-06 -2.82968 13.9651 -0.683405 5.01613e-06 -67.4842 -3.86721 9.76775 -30.6077 -0 -0 47.9565 1.9873e-06 17.8315 -0.507096 -0.163101 -1.16265e-07 -29.8508 
